<svg width="311" height="284" viewBox="0 0 311 284" fill="none" xmlns="http://www.w3.org/2000/svg">
<mask id="mask0_46_4934" style="mask-type:alpha" maskUnits="userSpaceOnUse" x="0" y="123" width="269" height="161">
<path d="M19.6617 126.216C57.6617 146.216 114.828 138.216 138.662 131.716C145.495 129.883 168.762 128.016 207.162 135.216C255.162 144.216 268.162 182.216 268.162 205.716C268.162 229.216 249.162 283.216 141.662 283.216C34.1617 283.216 12.1617 212.716 8.16171 203.716C4.16171 194.716 -3.33828 146.216 1.66171 131.716C5.66172 120.116 15.3284 123.216 19.6617 126.216Z" fill="#FEC343"/>
</mask>
<g mask="url(#mask0_46_4934)">
<path d="M19.6617 126.216C57.6617 146.216 114.828 138.216 138.662 131.716C145.495 129.883 168.762 128.016 207.162 135.216C255.162 144.216 268.162 182.216 268.162 205.716C268.162 229.216 249.162 283.216 141.662 283.216C34.1617 283.216 12.1617 212.716 8.16171 203.716C4.16171 194.716 -3.33828 146.216 1.66171 131.716C5.66172 120.116 15.3284 123.216 19.6617 126.216Z" fill="#FEC343"/>
<path d="M277.694 230.689C84.9653 298.356 15.2021 220.678 -17.0763 104.086L-18.4996 180.295L-20.9225 292.246L206.552 366.588L225.84 325.967C237.602 298.541 297.474 223.744 277.694 230.689Z" fill="#E29014"/>
</g>
<mask id="mask1_46_4934" style="mask-type:alpha" maskUnits="userSpaceOnUse" x="41" y="166" width="140" height="93">
<path d="M41.8478 172.742C40.5745 164.572 48.7162 166.554 52.9462 168.567C74.4061 177.369 98.1368 179.78 141.325 179.616C175.876 179.485 181.748 209.148 180.365 223.996C179.449 237.79 165.2 263.825 115.54 257.616C53.4639 249.855 43.4393 182.955 41.8478 172.742Z" fill="#FFE286"/>
</mask>
<g mask="url(#mask1_46_4934)">
<path d="M41.8478 172.742C40.5745 164.572 48.7162 166.554 52.9462 168.567C74.4061 177.369 98.1368 179.78 141.325 179.616C175.876 179.485 181.748 209.148 180.365 223.996C179.449 237.79 165.2 263.825 115.54 257.616C53.4639 249.855 43.4393 182.955 41.8478 172.742Z" fill="#FFE03F"/>
<path d="M206.655 217.117C78.4009 275.34 41.9413 215.571 32.9384 124.1L24.6069 184.436L12.1583 273.078L148.494 326.377L164.631 293.766C174.73 271.78 219.817 211.142 206.655 217.117Z" fill="#E29014"/>
</g>
<mask id="mask2_46_4934" style="mask-type:alpha" maskUnits="userSpaceOnUse" x="83" y="10" width="192" height="165">
<ellipse cx="178.996" cy="92.2162" rx="95.5" ry="82" transform="rotate(5.82901 178.996 92.2162)" fill="#FEC343"/>
</mask>
<g mask="url(#mask2_46_4934)">
<ellipse cx="178.996" cy="92.2162" rx="95.5" ry="82" transform="rotate(5.82901 178.996 92.2162)" fill="#FEC343"/>
<path d="M177.247 172.018C65.1961 103.813 86.7473 45.5183 145.747 -7.98169L98.8955 16.4169L29.9478 52.1026L68.4561 183.326L100.247 179.018C121.247 175.518 188.747 179.018 177.247 172.018Z" fill="#E29014"/>
</g>
<ellipse cx="18.0726" cy="23.2066" rx="18.0726" ry="23.2066" transform="matrix(0.582056 -0.813149 0.745499 0.666507 204.662 184.607)" fill="#FFDC68"/>
<ellipse cx="8.50847" cy="10.3661" rx="8.50847" ry="10.3661" transform="matrix(0.582056 -0.813149 0.745499 0.666507 226.8 179.867)" fill="#FDEBC5"/>
<ellipse cx="205.981" cy="67.2728" rx="25.6162" ry="33.7028" transform="rotate(-51.3411 205.981 67.2728)" fill="#FFDC68"/>
<ellipse cx="219.662" cy="97.2161" rx="13" ry="18" fill="black"/>
<ellipse cx="224.162" cy="93.7161" rx="6.5" ry="8.5" fill="#FDEBC5"/>
<mask id="mask3_46_4934" style="mask-type:alpha" maskUnits="userSpaceOnUse" x="249" y="94" width="62" height="46">
<path d="M276.896 96.7162C275.696 93.5162 274.062 94.3828 273.396 95.2162C271.396 101.716 257.896 119.716 252.396 124.216C247.996 127.816 249.562 131.049 250.896 132.216C261.296 147.016 291.896 134.383 305.896 126.216C309.729 124.216 314.796 119.916 304.396 118.716C291.396 117.216 278.396 100.716 276.896 96.7162Z" fill="#FF6748"/>
</mask>
<g mask="url(#mask3_46_4934)">
<path d="M276.896 96.7162C275.696 93.5162 274.062 94.3828 273.396 95.2162C271.396 101.716 257.896 119.716 252.396 124.216C247.996 127.816 249.562 131.049 250.896 132.216C261.296 147.016 291.896 134.383 305.896 126.216C309.729 124.216 314.796 119.916 304.396 118.716C291.396 117.216 278.396 100.716 276.896 96.7162Z" fill="#FF6748"/>
<path d="M308.662 119.716C308.662 119.716 265.195 138.216 252.062 122.436L246.923 127.265C245.971 127.265 244.639 128.553 246.923 133.704C249.207 138.855 260.056 140.858 265.195 141.216C287.464 141.216 302.31 129.948 309.733 127.265C317.156 124.582 314.301 120.826 313.159 120.289C312.246 119.86 311.136 119.895 308.662 119.716Z" fill="#DA5433"/>
</g>
<path d="M117.5 5.4411C78.5 1.72672 78.5 6.94135 83 9.94116L92.5 18.441C151.833 28.941 276.237 49.6188 290.5 36.941C295 32.9412 286.667 31.4412 272 28.9412C240.333 23.6078 159.5 9.44119 117.5 5.4411Z" fill="#B2D5E6"/>
<path d="M268 36.9752C214 -16.5588 127 -2.55896 104 20.4412L111 36.9752L233 55.9412L268 36.9752Z" fill="#FAFDFF"/>
<mask id="mask4_46_4934" style="mask-type:alpha" maskUnits="userSpaceOnUse" x="81" y="8" width="210" height="70">
<path d="M274.5 76.4412C224.1 81.2412 130.5 63.4412 90 53.9412L81 8.44116C149 36.8412 249.333 39.2745 291 36.9412L274.5 76.4412Z" fill="#F7F7F7"/>
</mask>
<g mask="url(#mask4_46_4934)">
<path d="M274.5 76.4412C224.1 81.2412 130.5 63.4412 90 53.9412L81 8.44116C149 36.8412 249.333 39.2745 291 36.9412L274.5 76.4412Z" fill="#E8F4FA"/>
<path d="M290 50.9412C239 55.9412 166.5 51.2412 78.5 22.4412" stroke="#0289CA" stroke-width="3"/>
<path d="M290 58.9412C239 63.9412 166.5 59.2412 78.5 30.4412" stroke="#0289CA" stroke-width="3"/>
</g>
</svg>
