<svg width="311" height="283" viewBox="0 0 311 283" fill="none" xmlns="http://www.w3.org/2000/svg">
<mask id="mask0_48_4969" style="mask-type:alpha" maskUnits="userSpaceOnUse" x="0" y="122" width="269" height="161">
<path d="M19.6617 125.275C57.6617 145.275 114.828 137.275 138.662 130.775C145.495 128.941 168.762 127.075 207.162 134.275C255.162 143.275 268.162 181.275 268.162 204.775C268.162 228.275 249.162 282.275 141.662 282.275C34.1617 282.275 12.1617 211.775 8.16171 202.775C4.16171 193.775 -3.33828 145.275 1.66171 130.775C5.66172 119.175 15.3284 122.275 19.6617 125.275Z" fill="#FEC343"/>
</mask>
<g mask="url(#mask0_48_4969)">
<path d="M19.6617 125.275C57.6617 145.275 114.828 137.275 138.662 130.775C145.495 128.941 168.762 127.075 207.162 134.275C255.162 143.275 268.162 181.275 268.162 204.775C268.162 228.275 249.162 282.275 141.662 282.275C34.1617 282.275 12.1617 211.775 8.16171 202.775C4.16171 193.775 -3.33828 145.275 1.66171 130.775C5.66172 119.175 15.3284 122.275 19.6617 125.275Z" fill="#FEC343"/>
<path d="M277.694 229.748C84.9653 297.415 15.2021 219.736 -17.0763 103.144L-18.4996 179.354L-20.9225 291.305L206.552 365.647L225.84 325.026C237.602 297.6 297.474 222.803 277.694 229.748Z" fill="#E29014"/>
<mask id="mask1_48_4969" style="mask-type:alpha" maskUnits="userSpaceOnUse" x="220" y="152" width="51" height="54">
<path fill-rule="evenodd" clip-rule="evenodd" d="M252.386 197.627C252.114 197.718 251.873 198.083 252.23 199.088C252.798 200.686 253.096 202.155 251.098 202.866C249.101 203.576 248.204 202.319 247.636 200.722C247.068 199.124 245.541 199.892 246.038 201.29C246.535 202.688 246.904 204.357 245.106 204.996C243.309 205.636 241.884 204.792 241.6 203.993C241.567 203.9 241.533 203.798 241.498 203.689C241.228 202.862 240.829 201.635 239.394 200.953C239.154 200.839 238.718 200.733 238.132 200.589C234.735 199.758 226.311 197.696 222.131 185.942C217.255 172.229 223.602 158.757 236.849 153.935L236.849 153.935C236.87 153.927 236.892 153.919 236.913 153.912C236.958 153.896 237.003 153.88 237.048 153.864L237.048 153.865C250.366 149.24 263.793 155.68 268.67 169.393C272.849 181.147 267.618 188.065 265.509 190.854C265.145 191.335 264.874 191.694 264.76 191.933C264.078 193.368 264.542 194.571 264.856 195.383C264.897 195.49 264.936 195.59 264.969 195.684C265.253 196.483 264.681 198.036 262.883 198.675C261.085 199.315 260.317 197.788 259.82 196.389C259.323 194.991 257.654 195.36 258.222 196.958C258.79 198.555 258.888 200.096 256.891 200.806C254.894 201.516 254.197 200.189 253.628 198.591C253.271 197.586 252.854 197.455 252.585 197.556L252.603 197.606C252.567 197.601 252.529 197.6 252.491 197.604C252.458 197.626 252.428 197.651 252.403 197.677L252.386 197.627Z" fill="#94E5FF"/>
</mask>
<g mask="url(#mask1_48_4969)">
<path fill-rule="evenodd" clip-rule="evenodd" d="M252.386 197.627C252.114 197.718 251.873 198.083 252.23 199.088C252.798 200.686 253.096 202.155 251.098 202.866C249.101 203.576 248.204 202.319 247.636 200.722C247.068 199.124 245.541 199.892 246.038 201.29C246.535 202.688 246.904 204.357 245.106 204.996C243.309 205.636 241.884 204.792 241.6 203.993C241.567 203.9 241.533 203.798 241.498 203.689C241.228 202.862 240.829 201.635 239.394 200.953C239.154 200.839 238.718 200.733 238.132 200.589C234.735 199.758 226.311 197.696 222.131 185.942C217.255 172.229 223.602 158.757 236.849 153.935L236.849 153.935C236.87 153.927 236.892 153.919 236.913 153.912C236.958 153.896 237.003 153.88 237.048 153.864L237.048 153.865C250.366 149.24 263.793 155.68 268.67 169.393C272.849 181.147 267.618 188.065 265.509 190.854C265.145 191.335 264.874 191.694 264.76 191.933C264.078 193.368 264.542 194.571 264.856 195.383C264.897 195.49 264.936 195.59 264.969 195.684C265.253 196.483 264.681 198.036 262.883 198.675C261.085 199.315 260.317 197.788 259.82 196.389C259.323 194.991 257.654 195.36 258.222 196.958C258.79 198.555 258.888 200.096 256.891 200.806C254.894 201.516 254.197 200.189 253.628 198.591C253.271 197.586 252.854 197.455 252.585 197.556L252.603 197.606C252.567 197.601 252.529 197.6 252.491 197.604C252.458 197.626 252.428 197.651 252.403 197.677L252.386 197.627Z" fill="black"/>
</g>
<path fill-rule="evenodd" clip-rule="evenodd" d="M249.076 187.832C248.876 187.903 248.44 188.194 248.29 188.787C248.141 189.38 247.199 191.2 246.746 192.036C246.551 192.33 246.377 193.022 247.243 193.434C248.326 193.949 248.455 193.678 248.712 193.136C248.747 193.065 248.782 192.984 248.82 192.898C249.066 192.338 249.417 191.536 250.283 191.228L249.076 187.832ZM249.077 187.833C249.276 187.762 249.798 187.711 250.289 188.077C250.779 188.443 252.659 189.259 253.538 189.621C253.875 189.726 254.447 190.153 254.035 191.02C253.52 192.103 253.249 191.974 252.708 191.716C252.636 191.682 252.558 191.642 252.474 191.599C251.929 191.32 251.15 190.92 250.284 191.228L249.077 187.833Z" fill="#FEC343"/>
<circle cx="235.948" cy="186.204" r="6.99563" transform="rotate(-19.5753 235.948 186.204)" fill="#FEC343"/>
<circle cx="257.918" cy="178.391" r="6.99563" transform="rotate(-19.5753 257.918 178.391)" fill="#FEC343"/>
<mask id="mask2_48_4969" style="mask-type:alpha" maskUnits="userSpaceOnUse" x="223" y="185" width="70" height="54">
<path fill-rule="evenodd" clip-rule="evenodd" d="M226.176 219.858C229.578 221.418 231.595 218.367 232.326 216.279L246.582 216.384L235.793 225.302C234.03 224.078 230.168 222.586 228.401 226.173C226.617 229.795 229.564 231.808 231.26 232.362C231.614 232.39 232.274 232.521 232.631 232.838L232.608 232.856C232.662 232.886 232.71 232.925 232.753 232.97C232.792 233.023 232.823 233.081 232.844 233.143L232.868 233.123C233.111 233.533 233.116 234.206 233.076 234.559C233.301 236.329 234.724 239.602 238.617 238.531C242.401 237.491 241.76 233.547 240.912 231.547L259.143 216.477L283.316 216.657C283.879 218.727 285.879 222.355 289.539 220.743C293.233 219.115 292.271 215.679 291.328 214.164C291.074 213.916 290.653 213.391 290.583 212.919L290.612 212.919C290.59 212.861 290.578 212.8 290.574 212.737C290.579 212.672 290.592 212.608 290.615 212.548L290.585 212.548C290.662 212.077 291.091 211.558 291.348 211.314C292.314 209.813 293.327 206.392 289.657 204.709C286.091 203.075 284.047 206.505 283.411 208.583L268.826 208.475L280.122 199.138L280.28 199.314C282.018 200.545 285.939 202.101 287.723 198.48C289.507 194.858 286.561 192.844 284.865 192.29C284.511 192.263 283.851 192.131 283.494 191.815L283.517 191.796C283.461 191.764 283.411 191.723 283.366 191.675C283.329 191.624 283.3 191.569 283.28 191.51L283.258 191.529C283.015 191.118 283.009 190.446 283.049 190.093C282.824 188.323 281.401 185.05 277.508 186.121C273.9 187.113 274.316 190.746 275.098 192.815L256.264 208.381L232.542 208.206L232.534 207.969C231.994 205.909 229.99 202.196 226.296 203.824C222.601 205.452 223.564 208.888 224.507 210.403C224.761 210.651 225.182 211.177 225.252 211.649L225.221 211.648C225.244 211.71 225.256 211.774 225.259 211.841C225.254 211.902 225.241 211.962 225.219 212.019L225.248 212.019C225.171 212.49 224.742 213.009 224.485 213.254C223.52 214.754 222.506 218.176 226.176 219.858Z" fill="#94E5FF"/>
</mask>
<g mask="url(#mask2_48_4969)">
<path fill-rule="evenodd" clip-rule="evenodd" d="M226.176 219.858C229.578 221.418 231.595 218.367 232.326 216.279L246.582 216.384L235.793 225.302C234.03 224.078 230.168 222.586 228.401 226.173C226.617 229.795 229.564 231.808 231.26 232.362C231.614 232.39 232.274 232.521 232.631 232.838L232.608 232.856C232.662 232.886 232.71 232.925 232.753 232.97C232.792 233.023 232.823 233.081 232.844 233.143L232.868 233.123C233.111 233.533 233.116 234.206 233.076 234.559C233.301 236.329 234.724 239.602 238.617 238.531C242.401 237.491 241.76 233.547 240.912 231.547L259.143 216.477L283.316 216.657C283.879 218.727 285.879 222.355 289.539 220.743C293.233 219.115 292.271 215.679 291.328 214.164C291.074 213.916 290.653 213.391 290.583 212.919L290.612 212.919C290.59 212.861 290.578 212.8 290.574 212.737C290.579 212.672 290.592 212.608 290.615 212.548L290.585 212.548C290.662 212.077 291.091 211.558 291.348 211.314C292.314 209.813 293.327 206.392 289.657 204.709C286.091 203.075 284.047 206.505 283.411 208.583L268.826 208.475L280.122 199.138L280.28 199.314C282.018 200.545 285.939 202.101 287.723 198.48C289.507 194.858 286.561 192.844 284.865 192.29C284.511 192.263 283.851 192.131 283.494 191.815L283.517 191.796C283.461 191.764 283.411 191.723 283.366 191.675C283.329 191.624 283.3 191.569 283.28 191.51L283.258 191.529C283.015 191.118 283.009 190.446 283.049 190.093C282.824 188.323 281.401 185.05 277.508 186.121C273.9 187.113 274.316 190.746 275.098 192.815L256.264 208.381L232.542 208.206L232.534 207.969C231.994 205.909 229.99 202.196 226.296 203.824C222.601 205.452 223.564 208.888 224.507 210.403C224.761 210.651 225.182 211.177 225.252 211.649L225.221 211.648C225.244 211.71 225.256 211.774 225.259 211.841C225.254 211.902 225.241 211.962 225.219 212.019L225.248 212.019C225.171 212.49 224.742 213.009 224.485 213.254C223.52 214.754 222.506 218.176 226.176 219.858Z" fill="black"/>
</g>
</g>
<mask id="mask3_48_4969" style="mask-type:alpha" maskUnits="userSpaceOnUse" x="41" y="165" width="140" height="93">
<path d="M41.8478 171.801C40.5745 163.631 48.7162 165.613 52.9462 167.625C74.4061 176.428 98.1368 178.839 141.325 178.675C175.876 178.544 181.748 208.207 180.365 223.055C179.449 236.849 165.2 262.884 115.54 256.675C53.4639 248.914 43.4393 182.014 41.8478 171.801Z" fill="#FFE286"/>
</mask>
<g mask="url(#mask3_48_4969)">
<path d="M41.8478 171.801C40.5745 163.631 48.7162 165.613 52.9462 167.625C74.4061 176.428 98.1368 178.839 141.325 178.675C175.876 178.544 181.748 208.207 180.365 223.055C179.449 236.849 165.2 262.884 115.54 256.675C53.4639 248.914 43.4393 182.014 41.8478 171.801Z" fill="#FFE03F"/>
<path d="M206.655 216.176C78.4009 274.399 41.9413 214.63 32.9384 123.159L24.6069 183.495L12.1583 272.137L148.494 325.436L164.631 292.825C174.73 270.839 219.817 210.201 206.655 216.176Z" fill="#E29014"/>
</g>
<mask id="mask4_48_4969" style="mask-type:alpha" maskUnits="userSpaceOnUse" x="83" y="9" width="192" height="165">
<ellipse cx="178.996" cy="91.275" rx="95.5" ry="82" transform="rotate(5.82901 178.996 91.275)" fill="#FEC343"/>
</mask>
<g mask="url(#mask4_48_4969)">
<ellipse cx="178.996" cy="91.275" rx="95.5" ry="82" transform="rotate(5.82901 178.996 91.275)" fill="#FEC343"/>
<path d="M177.247 171.077C65.1961 102.872 86.7473 44.5771 145.747 -8.92285L98.8955 15.4757L29.9478 51.1615L68.4561 182.385L100.247 178.077C121.247 174.577 188.747 178.077 177.247 171.077Z" fill="#E29014"/>
<ellipse cx="202.932" cy="93.6117" rx="24.7851" ry="30.0297" transform="rotate(-51.3411 202.932 93.6117)" fill="#FFDC68"/>
<ellipse cx="219.662" cy="96.2749" rx="13" ry="18" fill="black"/>
<ellipse cx="224.162" cy="92.7749" rx="6.5" ry="8.5" fill="#FDEBC5"/>
<path d="M283.137 65.6034C249.927 91.0243 131.976 66.7332 76.4355 56C75.0613 57.8077 73.5726 63.1555 73 65.6034C233.895 97.2383 249.355 87.6348 286 75.7718C286 72.1564 284.091 67.4865 283.137 65.6034Z" fill="black"/>
<path d="M219.5 117C203.5 116.6 198.5 95.1667 198 84.5H240.5C240.167 95.5 235.5 117.4 219.5 117Z" fill="black"/>
</g>
<mask id="mask5_48_4969" style="mask-type:alpha" maskUnits="userSpaceOnUse" x="249" y="93" width="62" height="46">
<path d="M276.896 95.775C275.696 92.575 274.062 93.4417 273.396 94.275C271.396 100.775 257.896 118.775 252.396 123.275C247.996 126.875 249.562 130.108 250.896 131.275C261.296 146.075 291.896 133.442 305.896 125.275C309.729 123.275 314.796 118.975 304.396 117.775C291.396 116.275 278.396 99.775 276.896 95.775Z" fill="#FF6748"/>
</mask>
<g mask="url(#mask5_48_4969)">
<path d="M276.896 95.775C275.696 92.575 274.062 93.4417 273.396 94.275C271.396 100.775 257.896 118.775 252.396 123.275C247.996 126.875 249.562 130.108 250.896 131.275C261.296 146.075 291.896 133.442 305.896 125.275C309.729 123.275 314.796 118.975 304.396 117.775C291.396 116.275 278.396 99.775 276.896 95.775Z" fill="#FF6748"/>
<path d="M308.662 118.775C308.662 118.775 265.195 137.275 252.062 121.494L246.923 126.324C245.971 126.324 244.639 127.611 246.923 132.763C249.207 137.914 260.056 139.917 265.195 140.275C287.464 140.275 302.31 129.007 309.733 126.324C317.156 123.641 314.301 119.885 313.159 119.348C312.246 118.919 311.136 118.954 308.662 118.775Z" fill="#DA5433"/>
</g>
</svg>
