<svg width="320" height="124" viewBox="0 0 320 124" fill="none" xmlns="http://www.w3.org/2000/svg">
<path d="M25.9324 34.352C-3.47606 21.6574 -21.5804 23.3985 -26.9565 25.8559C-37.226 42.0892 -57.3842 75.7498 -55.8612 80.5251C-54.3381 85.3004 -68.095 135.466 -75.1639 159.952C87.1363 167.119 412.942 181.134 417.766 179.855C423.795 178.257 398.495 11.5764 360.527 8.4132C322.559 5.24997 308.376 16.047 290.205 25.9308C272.035 35.8147 246.988 37.9518 234.985 37.7563C222.982 37.5608 212.979 37.398 176.177 24.0739C139.375 10.7499 109.953 35.7202 92.8387 42.2279C75.7239 48.7355 62.6931 50.2201 25.9324 34.352Z" fill="url(#paint0_linear_54_8655)"/>
<circle cx="277" cy="13" r="7" fill="#D6FBFF"/>
<path d="M277.512 8.4078C277.822 5.87788 270.247 9.52407 272.098 13.0785C272.978 14.7678 274.577 9.38213 277.512 8.4078Z" fill="white"/>
<circle cx="49" cy="46" r="8" fill="#D6FBFF"/>
<path d="M49.5852 40.7517C49.9401 37.8604 41.2828 42.0274 43.3979 46.0896C44.4031 48.0202 46.2308 41.8652 49.5852 40.7517Z" fill="white"/>
<circle cx="71" cy="31" r="6" fill="#D6FBFF"/>
<path d="M71.4387 27.0639C71.7049 24.8954 65.212 28.0207 66.7983 31.0673C67.5522 32.5153 68.923 27.899 71.4387 27.0639Z" fill="white"/>
<circle cx="229" cy="71" r="6" fill="#D6FBFF"/>
<path d="M229.439 67.0639C229.705 64.8954 223.212 68.0207 224.798 71.0673C225.552 72.5153 226.923 67.899 229.439 67.0639Z" fill="white"/>
<circle cx="213" cy="59" r="4" fill="#D6FBFF"/>
<path d="M213.293 56.3759C213.47 54.9302 209.141 57.0137 210.199 59.0448C210.702 60.0101 211.615 56.9326 213.293 56.3759Z" fill="white"/>
<mask id="mask0_54_8655" style="mask-type:alpha" maskUnits="userSpaceOnUse" x="0" y="71" width="320" height="70">
<rect y="71" width="320" height="70" fill="#249EAB"/>
</mask>
<g mask="url(#mask0_54_8655)">
<rect y="71" width="320" height="70" fill="#46C0CD"/>
<g opacity="0.14">
<rect x="-6" y="74" width="14.3309" height="14.3309" rx="2.38849" fill="#E1F5F7"/>
<rect x="10.7195" y="74" width="14.3309" height="14.3309" rx="2.38849" fill="#E1F5F7"/>
<rect x="27.4387" y="74" width="14.3309" height="14.3309" rx="2.38849" fill="#E1F5F7"/>
<rect x="44.1582" y="74" width="14.3309" height="14.3309" rx="2.38849" fill="#E1F5F7"/>
<rect x="60.8777" y="74" width="14.3309" height="14.3309" rx="2.38849" fill="#E1F5F7"/>
<rect x="77.5972" y="74" width="14.3309" height="14.3309" rx="2.38849" fill="#E1F5F7"/>
<rect x="94.3167" y="74" width="14.3309" height="14.3309" rx="2.38849" fill="#E1F5F7"/>
<rect x="111.036" y="74" width="14.3309" height="14.3309" rx="2.38849" fill="#E1F5F7"/>
<rect x="127.755" y="74" width="14.3309" height="14.3309" rx="2.38849" fill="#E1F5F7"/>
<rect x="144.475" y="74" width="14.3309" height="14.3309" rx="2.38849" fill="#E1F5F7"/>
<rect x="161.194" y="74" width="14.3309" height="14.3309" rx="2.38849" fill="#E1F5F7"/>
<rect x="177.914" y="74" width="14.3309" height="14.3309" rx="2.38849" fill="#E1F5F7"/>
<rect x="194.633" y="74" width="14.3309" height="14.3309" rx="2.38849" fill="#E1F5F7"/>
<rect x="211.353" y="74" width="14.3309" height="14.3309" rx="2.38849" fill="#E1F5F7"/>
<rect x="228.072" y="74" width="14.3309" height="14.3309" rx="2.38849" fill="#E1F5F7"/>
<rect x="244.791" y="74" width="14.3309" height="14.3309" rx="2.38849" fill="#E1F5F7"/>
<rect x="261.511" y="74" width="14.3309" height="14.3309" rx="2.38849" fill="#E1F5F7"/>
<rect x="278.23" y="74" width="14.3309" height="14.3309" rx="2.38849" fill="#E1F5F7"/>
<rect x="294.95" y="74" width="14.3309" height="14.3309" rx="2.38849" fill="#E1F5F7"/>
<rect x="311.669" y="74" width="14.3309" height="14.3309" rx="2.38849" fill="#E1F5F7"/>
<rect x="-6" y="90.7195" width="14.3309" height="14.3309" rx="2.38849" fill="#E1F5F7"/>
<rect x="10.7195" y="90.7195" width="14.3309" height="14.3309" rx="2.38849" fill="#E1F5F7"/>
<rect x="27.4387" y="90.7195" width="14.3309" height="14.3309" rx="2.38849" fill="#E1F5F7"/>
<rect x="44.1582" y="90.7195" width="14.3309" height="14.3309" rx="2.38849" fill="#E1F5F7"/>
<rect x="60.8777" y="90.7195" width="14.3309" height="14.3309" rx="2.38849" fill="#E1F5F7"/>
<rect x="77.5972" y="90.7195" width="14.3309" height="14.3309" rx="2.38849" fill="#E1F5F7"/>
<rect x="94.3167" y="90.7195" width="14.3309" height="14.3309" rx="2.38849" fill="#E1F5F7"/>
<rect x="111.036" y="90.7195" width="14.3309" height="14.3309" rx="2.38849" fill="#E1F5F7"/>
<rect x="127.755" y="90.7195" width="14.3309" height="14.3309" rx="2.38849" fill="#E1F5F7"/>
<rect x="144.475" y="90.7195" width="14.3309" height="14.3309" rx="2.38849" fill="#E1F5F7"/>
<rect x="161.194" y="90.7195" width="14.3309" height="14.3309" rx="2.38849" fill="#E1F5F7"/>
<rect x="177.914" y="90.7195" width="14.3309" height="14.3309" rx="2.38849" fill="#E1F5F7"/>
<rect x="194.633" y="90.7195" width="14.3309" height="14.3309" rx="2.38849" fill="#E1F5F7"/>
<rect x="211.353" y="90.7195" width="14.3309" height="14.3309" rx="2.38849" fill="#E1F5F7"/>
<rect x="228.072" y="90.7195" width="14.3309" height="14.3309" rx="2.38849" fill="#E1F5F7"/>
<rect x="244.791" y="90.7195" width="14.3309" height="14.3309" rx="2.38849" fill="#E1F5F7"/>
<rect x="261.511" y="90.7195" width="14.3309" height="14.3309" rx="2.38849" fill="#E1F5F7"/>
<rect x="278.23" y="90.7195" width="14.3309" height="14.3309" rx="2.38849" fill="#E1F5F7"/>
<rect x="294.95" y="90.7195" width="14.3309" height="14.3309" rx="2.38849" fill="#E1F5F7"/>
<rect x="311.669" y="90.7195" width="14.3309" height="14.3309" rx="2.38849" fill="#E1F5F7"/>
<rect x="-6" y="107.439" width="14.3309" height="14.3309" rx="2.38849" fill="#E1F5F7"/>
<rect x="10.7195" y="107.439" width="14.3309" height="14.3309" rx="2.38849" fill="#E1F5F7"/>
<rect x="27.4387" y="107.439" width="14.3309" height="14.3309" rx="2.38849" fill="#E1F5F7"/>
<rect x="44.1582" y="107.439" width="14.3309" height="14.3309" rx="2.38849" fill="#E1F5F7"/>
<rect x="60.8777" y="107.439" width="14.3309" height="14.3309" rx="2.38849" fill="#E1F5F7"/>
<rect x="77.5972" y="107.439" width="14.3309" height="14.3309" rx="2.38849" fill="#E1F5F7"/>
<rect x="94.3167" y="107.439" width="14.3309" height="14.3309" rx="2.38849" fill="#E1F5F7"/>
<rect x="111.036" y="107.439" width="14.3309" height="14.3309" rx="2.38849" fill="#E1F5F7"/>
<rect x="127.755" y="107.439" width="14.3309" height="14.3309" rx="2.38849" fill="#E1F5F7"/>
<rect x="144.475" y="107.439" width="14.3309" height="14.3309" rx="2.38849" fill="#E1F5F7"/>
<rect x="161.194" y="107.439" width="14.3309" height="14.3309" rx="2.38849" fill="#E1F5F7"/>
<rect x="177.914" y="107.439" width="14.3309" height="14.3309" rx="2.38849" fill="#E1F5F7"/>
<rect x="194.633" y="107.439" width="14.3309" height="14.3309" rx="2.38849" fill="#E1F5F7"/>
<rect x="211.353" y="107.439" width="14.3309" height="14.3309" rx="2.38849" fill="#E1F5F7"/>
<rect x="228.072" y="107.439" width="14.3309" height="14.3309" rx="2.38849" fill="#E1F5F7"/>
<rect x="244.791" y="107.439" width="14.3309" height="14.3309" rx="2.38849" fill="#E1F5F7"/>
<rect x="261.511" y="107.439" width="14.3309" height="14.3309" rx="2.38849" fill="#E1F5F7"/>
<rect x="278.23" y="107.439" width="14.3309" height="14.3309" rx="2.38849" fill="#E1F5F7"/>
<rect x="294.95" y="107.439" width="14.3309" height="14.3309" rx="2.38849" fill="#E1F5F7"/>
<rect x="311.669" y="107.439" width="14.3309" height="14.3309" rx="2.38849" fill="#E1F5F7"/>
</g>
</g>
<ellipse cx="160.5" cy="125" rx="19.5" ry="7" fill="url(#paint1_linear_54_8655)"/>
<mask id="mask1_54_8655" style="mask-type:alpha" maskUnits="userSpaceOnUse" x="148" y="29" width="24" height="98">
<path fill-rule="evenodd" clip-rule="evenodd" d="M149.419 31.5838V117.882C145.999 127.521 149.092 127.287 155.14 126.83C156.603 126.719 158.24 126.595 160 126.595C161.76 126.595 163.397 126.719 164.86 126.83C170.908 127.287 174.001 127.521 170.581 117.882V31.5838C170.581 29.922 160.941 29 160 29C159.06 29 149.419 29.922 149.419 31.5838Z" fill="url(#paint2_linear_54_8655)"/>
</mask>
<g mask="url(#mask1_54_8655)">
<path fill-rule="evenodd" clip-rule="evenodd" d="M149.419 31.5838V117.882C145.999 127.521 149.092 127.287 155.14 126.83C156.603 126.719 158.24 126.595 160 126.595C161.76 126.595 163.397 126.719 164.86 126.83C170.908 127.287 174.001 127.521 170.581 117.882V31.5838C170.581 29.922 160.941 29 160 29C159.06 29 149.419 29.922 149.419 31.5838Z" fill="url(#paint3_linear_54_8655)"/>
<g filter="url(#filter0_f_54_8655)">
<ellipse cx="160.264" cy="35.5456" rx="7.5" ry="23.5566" transform="rotate(5.29733 160.264 35.5456)" fill="url(#paint4_linear_54_8655)"/>
</g>
</g>
<path d="M130.633 121.097C132.582 123.532 131.141 127.896 130.024 129.621L129.111 126.881L130.633 121.097Z" fill="url(#paint5_linear_54_8655)"/>
<path d="M113.28 129.621C111.819 129.134 112.469 124.75 112.976 122.619L113.889 127.185L113.28 129.621Z" fill="#536272"/>
<path d="M130.633 121.097C127.467 118.905 126.27 111.253 126.067 107.701L124.24 116.834L129.72 127.49C131.425 126.516 131.039 122.923 130.633 121.097Z" fill="url(#paint6_linear_54_8655)"/>
<path d="M112.976 122.619C115.655 120.183 116.934 112.268 117.238 108.615L119.674 110.441L117.238 125.968C116.02 126.678 113.463 127.916 112.976 127.185C112.489 126.455 112.773 123.837 112.976 122.619Z" fill="url(#paint7_linear_54_8655)"/>
<path d="M126.067 102.83C123.327 101.613 118.456 102.222 116.934 102.83C115.959 105.022 116.934 108.006 117.542 109.224C120.181 109.325 125.153 109.528 125.762 108.919C126.244 108.438 126.689 103.107 126.067 102.83Z" fill="url(#paint8_linear_54_8655)"/>
<path d="M114.498 124.141C116.203 121.462 117.035 112.877 117.238 108.919H125.762C125.762 115.008 127.893 122.01 128.502 123.532C128.989 124.75 129.517 126.678 129.72 127.49C124.605 129.195 116.629 128.2 113.281 127.49C112.976 127.49 112.793 126.82 114.498 124.141Z" fill="url(#paint9_linear_54_8655)"/>
<path d="M126.675 95.8286C116.02 91.8709 94.1009 95.5242 92.5787 95.8286C91.4485 96.0546 91.1002 97.2214 91.0567 97.6552C91.3042 96.6056 119.674 94.3064 126.675 97.3507C127.406 96.6201 126.98 96.0315 126.675 95.8286Z" fill="#B4C4C4"/>
<path d="M126.676 97.3508C115.716 93.4541 98.5661 95.7272 91.3611 97.3508C90.2702 97.5856 91.97 101.917 92.2744 102.831C92.5179 103.561 93.5936 103.744 94.101 103.744C106.766 101.552 114.6 102.222 116.934 102.831C118.395 102.1 123.631 102.526 126.067 102.831C126.31 101.856 126.574 98.7715 126.676 97.3508Z" fill="url(#paint10_linear_54_8655)"/>
<path d="M190.96 121.097C189.011 123.532 190.452 127.896 191.569 129.621L192.482 126.881L190.96 121.097Z" fill="url(#paint11_linear_54_8655)"/>
<path d="M208.313 129.621C209.774 129.134 209.124 124.75 208.617 122.619L207.704 127.185L208.313 129.621Z" fill="#536272"/>
<path d="M190.96 121.097C194.126 118.905 195.323 111.253 195.526 107.701L197.353 116.834L191.873 127.49C190.168 126.516 190.554 122.923 190.96 121.097Z" fill="url(#paint12_linear_54_8655)"/>
<path d="M208.617 122.619C205.938 120.183 204.659 112.268 204.355 108.615L201.919 110.441L204.355 125.968C205.573 126.678 208.13 127.916 208.617 127.185C209.104 126.455 208.82 123.837 208.617 122.619Z" fill="url(#paint13_linear_54_8655)"/>
<path d="M195.526 102.83C198.266 101.613 203.137 102.222 204.659 102.83C205.634 105.022 204.659 108.006 204.051 109.224C201.412 109.325 196.44 109.528 195.831 108.919C195.349 108.438 194.904 103.107 195.526 102.83Z" fill="url(#paint14_linear_54_8655)"/>
<path d="M207.095 124.141C205.39 121.462 204.558 112.877 204.355 108.919H195.831C195.831 115.008 193.7 122.01 193.091 123.532C192.604 124.75 192.076 126.678 191.873 127.49C196.988 129.195 204.964 128.2 208.313 127.49C208.617 127.49 208.8 126.82 207.095 124.141Z" fill="url(#paint15_linear_54_8655)"/>
<path d="M194.918 95.8286C205.573 91.8709 227.492 95.5242 229.014 95.8286C230.145 96.0546 230.493 97.2214 230.536 97.6552C230.289 96.6056 201.919 94.3064 194.918 97.3507C194.187 96.6201 194.613 96.0315 194.918 95.8286Z" fill="#B4C4C4"/>
<path d="M194.917 97.3508C205.877 93.4541 223.027 95.7272 230.232 97.3508C231.323 97.5856 229.623 101.917 229.319 102.831C229.075 103.561 227.999 103.744 227.492 103.744C214.828 101.552 206.993 102.222 204.659 102.831C203.198 102.1 197.962 102.526 195.526 102.831C195.283 101.856 195.019 98.7715 194.917 97.3508Z" fill="url(#paint16_linear_54_8655)"/>
<defs>
<filter id="filter0_f_54_8655" x="148.484" y="8.07935" width="23.5603" height="54.9326" filterUnits="userSpaceOnUse" color-interpolation-filters="sRGB">
<feFlood flood-opacity="0" result="BackgroundImageFix"/>
<feBlend mode="normal" in="SourceGraphic" in2="BackgroundImageFix" result="shape"/>
<feGaussianBlur stdDeviation="2" result="effect1_foregroundBlur_54_8655"/>
</filter>
<linearGradient id="paint0_linear_54_8655" x1="174.392" y1="5.0113" x2="174.392" y2="95.5" gradientUnits="userSpaceOnUse">
<stop stop-color="#D3FBFF"/>
<stop offset="1" stop-color="#65F1FF"/>
</linearGradient>
<linearGradient id="paint1_linear_54_8655" x1="160.5" y1="118" x2="160.5" y2="132" gradientUnits="userSpaceOnUse">
<stop stop-color="#93AABB"/>
<stop offset="0.371911" stop-color="#505B67"/>
<stop offset="1" stop-color="#A0A9B6"/>
</linearGradient>
<linearGradient id="paint2_linear_54_8655" x1="145.888" y1="95.1082" x2="172" y2="95.1082" gradientUnits="userSpaceOnUse">
<stop stop-color="#F7F7F7"/>
<stop offset="0.195" stop-color="#7F8693"/>
<stop offset="0.535" stop-color="#CFCFCF"/>
<stop offset="0.79" stop-color="#B0B9C7"/>
<stop offset="0.93" stop-color="#C3EBEB"/>
<stop offset="1" stop-color="white"/>
</linearGradient>
<linearGradient id="paint3_linear_54_8655" x1="145.888" y1="95.1082" x2="172" y2="95.1082" gradientUnits="userSpaceOnUse">
<stop stop-color="#F7F7F7"/>
<stop offset="0.195" stop-color="#7F8693"/>
<stop offset="0.535" stop-color="#CFCFCF"/>
<stop offset="0.79" stop-color="#B0B9C7"/>
<stop offset="0.93" stop-color="#C3EBEB"/>
<stop offset="1" stop-color="white"/>
</linearGradient>
<linearGradient id="paint4_linear_54_8655" x1="161.83" y1="24.1172" x2="159.861" y2="59.0795" gradientUnits="userSpaceOnUse">
<stop stop-color="#B9D5EC"/>
<stop offset="0.455" stop-color="#F2F5FA"/>
<stop offset="1" stop-color="#B6C7D6"/>
</linearGradient>
<linearGradient id="paint5_linear_54_8655" x1="130.633" y1="125.054" x2="131.547" y2="125.359" gradientUnits="userSpaceOnUse">
<stop stop-color="#7C8B9D"/>
<stop offset="0.955" stop-color="#414B57"/>
</linearGradient>
<linearGradient id="paint6_linear_54_8655" x1="125.762" y1="110.441" x2="130.329" y2="125.054" gradientUnits="userSpaceOnUse">
<stop stop-color="#4E5860"/>
<stop offset="1" stop-color="#8699A9"/>
</linearGradient>
<linearGradient id="paint7_linear_54_8655" x1="117.238" y1="109.224" x2="112.672" y2="126.576" gradientUnits="userSpaceOnUse">
<stop offset="0.0515813" stop-color="#717B87"/>
<stop offset="1" stop-color="#46515D"/>
</linearGradient>
<linearGradient id="paint8_linear_54_8655" x1="121.446" y1="102.127" x2="121.446" y2="109.339" gradientUnits="userSpaceOnUse">
<stop stop-color="#D9D9D9"/>
<stop offset="0.09" stop-color="#515151"/>
<stop offset="0.445" stop-color="#D9D9D9"/>
<stop offset="0.855" stop-color="#494949"/>
</linearGradient>
<linearGradient id="paint9_linear_54_8655" x1="113.585" y1="119.574" x2="131.242" y2="122.619" gradientUnits="userSpaceOnUse">
<stop stop-color="#DAE1EC"/>
<stop offset="0.215" stop-color="#7E858F"/>
<stop offset="0.5" stop-color="#B1BBC9"/>
<stop offset="0.945" stop-color="#7E858F"/>
<stop offset="1" stop-color="#CFD8E4"/>
</linearGradient>
<linearGradient id="paint10_linear_54_8655" x1="108.838" y1="95.1992" x2="108.838" y2="103.744" gradientUnits="userSpaceOnUse">
<stop stop-color="#9EA5B3"/>
<stop offset="1" stop-color="#636A78"/>
</linearGradient>
<linearGradient id="paint11_linear_54_8655" x1="190.96" y1="125.054" x2="190.046" y2="125.359" gradientUnits="userSpaceOnUse">
<stop stop-color="#7C8B9D"/>
<stop offset="0.955" stop-color="#414B57"/>
</linearGradient>
<linearGradient id="paint12_linear_54_8655" x1="195.831" y1="110.441" x2="191.264" y2="125.054" gradientUnits="userSpaceOnUse">
<stop stop-color="#4E5860"/>
<stop offset="1" stop-color="#8699A9"/>
</linearGradient>
<linearGradient id="paint13_linear_54_8655" x1="204.355" y1="109.224" x2="208.921" y2="126.576" gradientUnits="userSpaceOnUse">
<stop offset="0.0515813" stop-color="#717B87"/>
<stop offset="1" stop-color="#46515D"/>
</linearGradient>
<linearGradient id="paint14_linear_54_8655" x1="200.147" y1="102.127" x2="200.147" y2="109.339" gradientUnits="userSpaceOnUse">
<stop stop-color="#D9D9D9"/>
<stop offset="0.09" stop-color="#515151"/>
<stop offset="0.445" stop-color="#D9D9D9"/>
<stop offset="0.855" stop-color="#494949"/>
</linearGradient>
<linearGradient id="paint15_linear_54_8655" x1="208.008" y1="119.574" x2="190.351" y2="122.619" gradientUnits="userSpaceOnUse">
<stop stop-color="#DAE1EC"/>
<stop offset="0.215" stop-color="#7E858F"/>
<stop offset="0.5" stop-color="#B1BBC9"/>
<stop offset="0.945" stop-color="#7E858F"/>
<stop offset="1" stop-color="#CFD8E4"/>
</linearGradient>
<linearGradient id="paint16_linear_54_8655" x1="212.755" y1="95.1992" x2="212.755" y2="103.744" gradientUnits="userSpaceOnUse">
<stop stop-color="#9EA5B3"/>
<stop offset="1" stop-color="#636A78"/>
</linearGradient>
</defs>
</svg>
