<svg width="24" height="24" viewBox="0 0 24 24" fill="none" xmlns="http://www.w3.org/2000/svg">
<g clip-path="url(#clip0_38_1485)">
<path d="M16.1214 7.73293C15.803 10.3491 17.6982 7.41652 19.2725 9.37199C23.6025 13.8742 18.9841 15.0546 17.6883 15.8167C14.7567 17.541 18.075 15.0535 18.9796 18.8729C19.8204 22.4233 15.7885 20.8322 13.8189 20.0123C11.8492 19.1923 11.3783 19.1747 10.1945 20.3998C9.0107 21.625 6.31151 19.2969 6.31344 17.6616C6.31537 16.0263 5.07522 16.7143 3.49919 16.3036C1.92317 15.8929 3.90199 13.5873 5.08582 12.3621C6.26965 11.137 6.45909 10.8397 5.08582 7.71991C3.03483 3.06045 6.34738 2.80178 7.07047 5.17002C8.28912 9.16128 13.5052 -0.886509 10.5166 7.72632C9.58759 10.4036 12.184 4.45761 14.9443 3.23436C17.7046 2.01112 16.5194 4.46273 16.1214 7.73293Z" fill="url(#paint0_linear_38_1485)"/>
<path fill-rule="evenodd" clip-rule="evenodd" d="M10.8704 6.67671C10.7683 6.99098 10.6507 7.33987 10.5166 7.72632C10.1701 8.7249 10.314 8.52384 10.774 7.81564C10.7956 7.78234 10.8179 7.74792 10.8409 7.71245C10.9888 7.48442 11.1649 7.21303 11.3642 6.9174C11.8671 6.17164 12.5183 5.27165 13.2404 4.52447C13.7796 3.96669 14.3582 3.49408 14.9443 3.23436C17.0874 2.28463 16.8521 3.55012 16.4535 5.69405C16.3387 6.31147 16.2104 7.00174 16.1214 7.73293C15.9593 9.06433 16.3706 8.95865 17.0211 8.7915C17.6489 8.63021 18.4994 8.41168 19.2725 9.37199C22.7763 13.0152 20.4208 14.4832 18.7077 15.3146C18.5834 15.3749 18.4625 15.4319 18.3475 15.4861C18.2531 15.5306 18.1628 15.5731 18.0777 15.6142C17.9293 15.6858 17.7971 15.7527 17.6883 15.8167C16.8078 16.3346 16.4911 16.4725 16.5035 16.5155C16.5237 16.5858 17.4234 16.4024 18.1769 17.2104C18.2557 17.2949 18.3329 17.3903 18.4074 17.4979C18.6353 17.8275 18.8373 18.2722 18.9796 18.8729C19.8204 22.4233 15.7885 20.8322 13.8189 20.0123C11.8492 19.1923 11.3783 19.1747 10.1945 20.3998C9.0107 21.625 6.31151 19.2969 6.31344 17.6616C6.31477 16.5378 5.72957 16.5112 4.85191 16.4712C4.45237 16.453 3.99221 16.4321 3.49919 16.3036C1.92317 15.8929 3.90199 13.5873 5.08582 12.3621C6.26965 11.137 6.45909 10.8397 5.08582 7.71991C3.03483 3.06045 6.34738 2.80178 7.07047 5.17002C7.49932 6.57456 8.4232 6.24055 9.31035 5.593C9.4944 5.45866 9.67686 5.31083 9.853 5.16222C9.98159 5.05373 10.1068 4.94482 10.2268 4.84046C10.6114 4.50595 10.9424 4.21809 11.1589 4.13992C11.4969 4.01791 11.556 4.40663 11.1049 5.92588C11.0383 6.15047 10.9601 6.40069 10.8704 6.67671ZM13.2404 2.26133C13.5209 1.86044 13.572 1.85795 14.2093 1.57555C14.6202 1.39343 15.0455 1.2391 15.4669 1.15948C15.8739 1.08257 16.4424 1.04345 17.0256 1.27796C18.4472 1.84965 18.5321 3.29993 18.5315 3.80074C18.5307 4.4334 18.3932 5.18269 18.2776 5.8082C18.2643 5.88019 18.2509 5.95228 18.2375 6.02453C18.1874 6.29383 18.137 6.56523 18.0893 6.84086C18.1452 6.84386 18.2017 6.84823 18.2586 6.85414C19.1317 6.94484 19.9573 7.36272 20.6301 8.16649C21.7926 9.38633 22.5597 10.586 22.8109 11.805C23.0896 13.1578 22.6859 14.2956 21.9975 15.1419C21.4064 15.8685 20.6317 16.3533 20.0356 16.6741C20.3432 17.1739 20.5821 17.7668 20.745 18.4547C21.0012 19.5362 21.0443 20.8442 20.1796 21.8482C19.3307 22.8337 18.113 22.9305 17.3641 22.8937C15.8394 22.8188 14.0343 22.0672 13.1225 21.6877C12.6348 21.4847 12.3178 21.3649 12.086 21.2981C12.0179 21.2785 11.9669 21.2665 11.9302 21.259C11.8581 21.3143 11.7214 21.4307 11.4992 21.6607C10.6899 22.4982 9.64157 22.6537 8.78349 22.5074C7.97895 22.3702 7.26002 21.9703 6.70256 21.5411C6.13013 21.1003 5.60896 20.5379 5.21909 19.9213C4.93368 19.4698 5.21909 18.6631 5.65506 17.6616C5.63838 17.6607 4.52024 18.2716 4.50326 18.2707C4.04792 18.3153 3.60866 18.2071 3.04171 18.0594C2.607 17.9461 2.11434 17.7203 1.71871 17.2814C1.30684 16.8244 1.13415 16.2851 1.10472 15.7956C1.05368 14.9464 1.42538 14.1883 1.68187 13.7389C2.24996 12.7435 3.18288 11.7205 3.78117 11.1013C4.0395 10.834 4.16655 10.6842 4.22479 10.6112C4.22281 10.5978 4.22028 10.5823 4.21704 10.5646C4.20011 10.4725 4.16707 10.3384 4.10516 10.1467C3.97828 9.75382 3.76411 9.22062 3.4253 8.45092C2.85031 7.14464 2.56349 5.95965 2.61714 4.92847C2.67138 3.88602 3.11123 2.77747 4.18803 2.20655C5.23337 1.65232 6.34929 1.89187 7.12364 2.3725C7.70915 2.73593 8.32349 4.52626 8.65157 5.17002C8.95811 5.91625 10.2268 5.03144 10.2268 4.52447C10.2268 4.32023 10.3978 4.02668 10.4532 3.97882C10.5085 3.93097 10.4727 3.9619 10.4727 3.9619C10.7019 3.76362 11.1049 3.68666 11.466 3.22538C11.6155 3.14448 11.8261 2.77146 12.507 2.87439C12.8351 2.924 13.2404 2.26133 13.2404 2.26133ZM9.61526 4.37597C9.61526 4.37597 9.61536 4.38273 9.61373 4.39816C9.61414 4.384 9.61526 4.37597 9.61526 4.37597Z" fill="url(#paint1_linear_38_1485)"/>
<path d="M15.2011 11.3129C14.8 10.0013 14.8788 9.84975 13.2174 8.672C10.532 6.02755 13.694 5.46809 14.7423 6.04918C16.3392 6.93429 17.9058 8.95463 18.0938 9.80778C18.2872 10.6857 17.7789 11.5599 17.4352 11.9089C17.0916 12.2579 15.7025 12.9523 15.2011 11.3129Z" fill="#A8F7FF"/>
<path d="M11.1472 1.78059C11.0607 2.39567 11.1305 2.58045 10.664 2.90678C9.63618 3.62532 8.81457 3.35848 8.65282 2.91657C8.40645 2.24347 8.75469 1.36636 9.10922 1.14619C9.47403 0.919639 10.1444 0.916381 10.4737 0.959731C10.803 1.00308 11.2649 0.943936 11.1472 1.78059Z" fill="url(#paint2_linear_38_1485)"/>
<path d="M1.60685 18.9369C2.31527 18.4149 2.89779 18.5657 3.43787 18.7891C4.55739 19.2523 4.26095 20.0838 3.96788 20.4679C3.52149 21.053 2.70167 21.2195 2.31529 21.0343C1.91771 20.8437 1.75123 20.7768 1.60684 20.4679C1.46246 20.159 1.01948 19.3697 1.60685 18.9369Z" fill="url(#paint3_linear_38_1485)"/>
<path d="M21.4716 3.40057C22.1435 3.72755 22.1203 4.32855 22.0158 4.9336C21.7992 6.18785 20.9094 6.40208 20.4646 6.3631C19.7869 6.30371 19.4437 5.67475 19.5436 5.22738C19.6464 4.76703 19.6767 4.58163 19.9519 4.2772C20.2272 3.97278 20.9145 3.12947 21.4716 3.40057Z" fill="url(#paint4_linear_38_1485)"/>
<path d="M5.51475 21.4101C5.78755 21.7868 5.70528 22.094 5.58484 22.3785C5.33513 22.9682 4.89692 22.8079 4.6952 22.6513C4.38793 22.4128 4.27268 22.0418 4.40308 21.7754C4.50553 21.566 4.55035 21.4812 4.71424 21.4062C4.87814 21.3313 5.28857 21.0977 5.51475 21.4101Z" fill="url(#paint5_linear_38_1485)"/>
<path d="M22.3984 18.5706C21.8339 18.5577 21.5973 18.2526 21.4107 17.9273C21.024 17.2529 21.5008 16.9469 21.8003 16.8669C22.2565 16.745 22.6998 16.906 22.8616 17.2277C22.9887 17.4804 23.0378 17.5861 22.99 17.7995C22.9421 18.013 22.8665 18.5813 22.3984 18.5706Z" fill="url(#paint6_linear_38_1485)"/>
<path d="M2.98327 8.58969C3.55299 9.37644 3.38117 10.0181 3.12964 10.6122C2.60815 11.8437 1.69296 11.5089 1.27166 11.1819C0.629956 10.6838 0.38925 9.90894 0.661603 9.35252C0.875562 8.9154 0.969157 8.73817 1.31144 8.58162C1.65373 8.42506 2.51089 7.93738 2.98327 8.58969Z" fill="url(#paint7_linear_38_1485)"/>
</g>
<defs>
<linearGradient id="paint0_linear_38_1485" x1="7.00536" y1="6.09581" x2="17.9054" y2="20.175" gradientUnits="userSpaceOnUse">
<stop stop-color="#7AE9F4"/>
<stop offset="1" stop-color="#1AC2D3"/>
</linearGradient>
<linearGradient id="paint1_linear_38_1485" x1="7.00536" y1="6.09581" x2="17.9054" y2="20.175" gradientUnits="userSpaceOnUse">
<stop stop-color="#7AE9F4"/>
<stop offset="1" stop-color="#1AC2D3"/>
</linearGradient>
<linearGradient id="paint2_linear_38_1485" x1="10.1347" y1="2.97969" x2="9.57244" y2="0.168285" gradientUnits="userSpaceOnUse">
<stop stop-color="#4DD7E5"/>
<stop offset="1" stop-color="#4DD7E5" stop-opacity="0"/>
</linearGradient>
<linearGradient id="paint3_linear_38_1485" x1="2" y1="21" x2="1.5" y2="18" gradientUnits="userSpaceOnUse">
<stop stop-color="#42D2E1"/>
<stop offset="1" stop-color="#42D2E1" stop-opacity="0"/>
</linearGradient>
<linearGradient id="paint4_linear_38_1485" x1="19.5092" y1="4.9292" x2="22.6795" y2="3.39011" gradientUnits="userSpaceOnUse">
<stop stop-color="#42D2E1"/>
<stop offset="1" stop-color="#42D2E1" stop-opacity="0"/>
</linearGradient>
<linearGradient id="paint5_linear_38_1485" x1="5.36808" y1="22.7103" x2="5" y2="20.5" gradientUnits="userSpaceOnUse">
<stop stop-color="#47D5E3"/>
<stop offset="1" stop-color="#47D5E3" stop-opacity="0"/>
</linearGradient>
<linearGradient id="paint6_linear_38_1485" x1="23" y1="18.5" x2="22.5" y2="15.5" gradientUnits="userSpaceOnUse">
<stop stop-color="#4AD6E4"/>
<stop offset="1" stop-color="#4AD6E4" stop-opacity="0"/>
</linearGradient>
<linearGradient id="paint7_linear_38_1485" x1="2.67695" y1="11.3051" x2="1.40937" y2="8.53372" gradientUnits="userSpaceOnUse">
<stop stop-color="#34E2F3"/>
<stop offset="1" stop-color="#6FE5F1" stop-opacity="0.2"/>
</linearGradient>
<clipPath id="clip0_38_1485">
<rect width="24" height="24" fill="white"/>
</clipPath>
</defs>
</svg>
